<?xml version="1.0" encoding="utf-8" ?><svg xmlns="http://www.w3.org/2000/svg" xmlns:xlink="http://www.w3.org/1999/xlink" width="1080" height="1080" viewBox="0 0 1080 1080"><path fill="#0043CD" d="M536.865 68.2461C562.693 67.0014 580.709 84.808 599.363 99.7855L655.229 145.552L821.821 282.196C857.285 311.221 893.058 339.733 928.583 368.839C947.44 384.288 973.192 399.844 976.625 426.727C977.912 438.139 975.111 452.524 967.502 461.819C946.716 487.21 918.425 507.26 893.399 528.29C885.242 535.145 881.75 545.385 890.906 552.866C914.299 571.811 938.128 588.528 959.594 609.914C981.558 631.798 983.628 661.973 961.184 684.572C946.274 699.586 928.602 713.244 912.069 726.617L851.083 776.538L727.46 877.852C686.375 911.172 643.346 945.399 602.959 979.462C598.128 983.919 592.418 987.902 587.341 992.041C549.017 1023.28 524.545 1015.72 487.962 986.527C477.159 977.962 466.504 969.211 456.003 960.279C438.04 945.23 419.091 930.328 400.909 915.29L187.716 739.092C182.978 735.177 173.986 724.748 169.679 719.774C135.608 680.781 113.421 632.843 105.742 581.634C105.097 577.233 104.054 571.969 103.675 567.645C97.6095 492.218 121.859 417.484 171.055 359.989C189.719 337.825 221.842 313.562 244.481 294.783L374.537 188.036L457.161 120.935C474.283 106.916 491.676 92.0334 509.599 78.9571C516.317 74.0564 528.579 68.9507 536.865 68.2461ZM692.922 562.699C697.742 562.432 705.374 561.84 709.725 564.013C722.691 570.457 733.845 581.756 745.028 590.959C753.866 598.231 769.384 605.911 770.025 618.312C770.757 632.476 753.262 642.909 743.105 651.01L701.356 684.285C651.188 724.765 601.337 765.638 551.81 806.9C540.026 816.797 527.602 826.208 515.83 836.238C509.238 841.854 504.004 845.605 497.697 851.89C497.05 857.11 497.065 862.033 501.261 866.061C518.132 882.257 534.244 901.55 558.271 883.409C573.356 872.602 586.985 860.953 601.2 849.143L658.108 802.58L775.618 706.394C792.598 692.457 810.077 678.821 826.626 664.57C835.223 657.166 845.783 648.406 835.642 638.192C827.83 630.323 820.137 623.83 811.313 617.115C798.412 606.428 785.471 595.886 772.433 585.363C766.562 580.623 760.807 576.073 755.06 571.171C751.639 568.252 748.463 566.428 745.134 563.027C732.582 552.141 716.786 540.302 703.659 529.601L618.507 459.472C608.89 451.5 598.839 443.832 589.492 435.579C581.841 428.825 570.878 422.891 569.96 411.814C568.834 398.229 581.204 392.228 590.215 384.858C599.891 377.475 609.788 369.423 619.138 361.693C642.527 342.356 658.557 360.775 676.285 375.91C708.74 403.616 741.911 430.29 775.484 456.656C778.641 459.136 782.051 460.897 785.108 463.139C807.218 479.354 825.41 454.562 839.46 440.332C840.115 436.261 840.161 434.425 840.195 430.268C838.09 427.283 834.21 421.723 831.404 419.376C822.195 411.674 812.641 403.93 803.285 396.412L750.168 353.403L706.886 317.718C693.895 307.058 690.102 301.215 672.971 297.763C667.024 299.468 659.821 301.234 654.89 304.892C643.424 313.398 632.472 322.939 621.404 331.891L541.844 397.097L435.613 483.517C424.393 492.741 412.79 501.775 401.719 510.881C389.543 520.896 379.271 532.953 384.554 549.715C388.895 563.486 409.135 577.941 420.099 586.681L450.554 610.65C463.765 620.897 476.474 632.207 489.446 642.832C497.865 650.044 507.971 657.517 513.802 666.967C517.775 673.04 511.13 682.179 506.47 686.132C491.003 699.253 475.326 712.483 459.593 725.294C450.938 732.341 437.36 730.233 428.6 724.515C412.931 714.289 399.624 700.843 385.249 688.919C342.922 653.28 298.634 627.853 284.215 570.201C276.538 539.342 281.365 506.699 297.644 479.383C314.573 451.262 336.287 434.007 360.971 413.42C385.944 392.59 411.459 372.676 436.723 352.227L526.023 278.782C540.405 267.059 554.355 254.816 569.074 243.493C572.725 240.684 576.471 237.842 579.497 234.264C590.375 221.4 576.93 207.24 565.957 200.436C559.295 196.305 551.424 194.357 543.564 194.328C535.91 194.412 530.418 194.873 523.834 199.473C513.198 206.905 502.683 216.19 492.636 224.404L436.41 269.957L311.299 372.608C291.192 389.354 267.77 407.038 249.534 425.168C227.847 446.729 210.333 478.606 207.281 509.183C205.789 524.134 207.192 544.811 206.795 560.308C206.671 565.142 208.18 571.212 208.859 576.079C213.977 612.793 236.415 645.884 263.015 671.067C291.373 697.912 324.799 722.822 355.244 747.534C369.555 758.869 383.232 771.543 398.392 781.687C401.606 783.838 405.932 785.061 409.724 784.651C423.836 783.127 436.971 769.824 447.159 761.444L480.427 734.153L571.724 659.232L667.737 580.438C672.219 576.821 677.336 572.837 681.994 569.489C685.231 567.162 689.705 565.413 692.922 562.699Z"/></svg>